<svg xmlns="http://www.w3.org/2000/svg" version="1.1" xmlns:xlink="http://www.w3.org/1999/xlink" xmlns:svgjs="http://svgjs.com/svgjs" width="1440" height="560" preserveAspectRatio="none" viewBox="0 0 1440 560">
    <g mask="url(&quot;#SvgjsMask1272&quot;)" fill="none">
        <rect width="1440" height="560" x="0" y="0" fill="url(#SvgjsLinearGradient1273)"></rect>
        <path d="M-110.69 347.01L-110.69 347.01" stroke="#132e65" stroke-width="1.5"></path>
        <path d="M-110.69 347.01L-78.75 534.57" stroke="#132e65" stroke-width="1.5"></path>
        <path d="M-110.69 347.01L89.95 387.84" stroke="#132e65" stroke-width="1.5"></path>
        <path d="M-110.69 347.01L102.78 558.58" stroke="#132e65" stroke-width="1.5"></path>
        <path d="M-110.69 347.01L227.38 364.36" stroke="#132e65" stroke-width="1.5"></path>
        <path d="M-78.75 534.57L-78.75 534.57" stroke="#132e65" stroke-width="1.5"></path>
        <path d="M-78.75 534.57L-46.65 697.1" stroke="#132e65" stroke-width="1.5"></path>
        <path d="M-78.75 534.57L102.78 558.58" stroke="#132e65" stroke-width="1.5"></path>
        <path d="M-78.75 534.57L89.95 387.84" stroke="#132e65" stroke-width="1.5"></path>
        <path d="M-78.75 534.57L107.87 665.1" stroke="#132e65" stroke-width="1.5"></path>
        <path d="M-46.65 697.1L-46.65 697.1" stroke="#132e65" stroke-width="1.5"></path>
        <path d="M-46.65 697.1L107.87 665.1" stroke="#132e65" stroke-width="1.5"></path>
        <path d="M89.95 387.84L89.95 387.84" stroke="#132e65" stroke-width="1.5"></path>
        <path d="M89.95 387.84L227.38 364.36" stroke="#132e65" stroke-width="1.5"></path>
        <path d="M89.95 387.84L102.78 558.58" stroke="#132e65" stroke-width="1.5"></path>
        <path d="M89.95 387.84L241.45 509.86" stroke="#132e65" stroke-width="1.5"></path>
        <path d="M102.78 558.58L102.78 558.58" stroke="#132e65" stroke-width="1.5"></path>
        <path d="M102.78 558.58L107.87 665.1" stroke="#132e65" stroke-width="1.5"></path>
        <path d="M102.78 558.58L200.34 655.58" stroke="#132e65" stroke-width="1.5"></path>
        <path d="M102.78 558.58L241.45 509.86" stroke="#132e65" stroke-width="1.5"></path>
        <path d="M107.87 665.1L107.87 665.1" stroke="#132e65" stroke-width="1.5"></path>
        <path d="M107.87 665.1L200.34 655.58" stroke="#132e65" stroke-width="1.5"></path>
        <path d="M227.38 364.36L227.38 364.36" stroke="#132e65" stroke-width="1.5"></path>
        <path d="M227.38 364.36L355.52 393.24" stroke="#132e65" stroke-width="1.5"></path>
        <path d="M227.38 364.36L241.45 509.86" stroke="#132e65" stroke-width="1.5"></path>
        <path d="M227.38 364.36L381.82 498.19" stroke="#132e65" stroke-width="1.5"></path>
        <path d="M227.38 364.36L102.78 558.58" stroke="#132e65" stroke-width="1.5"></path>
        <path d="M227.38 364.36L200.34 655.58" stroke="#132e65" stroke-width="1.5"></path>
        <path d="M241.45 509.86L241.45 509.86" stroke="#132e65" stroke-width="1.5"></path>
        <path d="M241.45 509.86L381.82 498.19" stroke="#132e65" stroke-width="1.5"></path>
        <path d="M241.45 509.86L200.34 655.58" stroke="#132e65" stroke-width="1.5"></path>
        <path d="M200.34 655.58L200.34 655.58" stroke="#132e65" stroke-width="1.5"></path>
        <path d="M355.52 393.24L355.52 393.24" stroke="#132e65" stroke-width="1.5"></path>
        <path d="M355.52 393.24L381.82 498.19" stroke="#132e65" stroke-width="1.5"></path>
        <path d="M355.52 393.24L241.45 509.86" stroke="#132e65" stroke-width="1.5"></path>
        <path d="M381.82 498.19L381.82 498.19" stroke="#132e65" stroke-width="1.5"></path>
        <path d="M381.82 498.19L405.97 657.1" stroke="#132e65" stroke-width="1.5"></path>
        <path d="M381.82 498.19L534.56 553.61" stroke="#132e65" stroke-width="1.5"></path>
        <path d="M381.82 498.19L554.91 369.83" stroke="#132e65" stroke-width="1.5"></path>
        <path d="M405.97 657.1L405.97 657.1" stroke="#132e65" stroke-width="1.5"></path>
        <path d="M405.97 657.1L548.19 676.54" stroke="#132e65" stroke-width="1.5"></path>
        <path d="M405.97 657.1L534.56 553.61" stroke="#132e65" stroke-width="1.5"></path>
        <path d="M405.97 657.1L200.34 655.58" stroke="#132e65" stroke-width="1.5"></path>
        <path d="M405.97 657.1L241.45 509.86" stroke="#132e65" stroke-width="1.5"></path>
        <path d="M554.91 369.83L554.91 369.83" stroke="#132e65" stroke-width="1.5"></path>
        <path d="M554.91 369.83L650.07 404.35" stroke="#132e65" stroke-width="1.5"></path>
        <path d="M554.91 369.83L676.15 502.16" stroke="#132e65" stroke-width="1.5"></path>
        <path d="M554.91 369.83L677.11 237.4" stroke="#132e65" stroke-width="1.5"></path>
        <path d="M554.91 369.83L534.56 553.61" stroke="#132e65" stroke-width="1.5"></path>
        <path d="M554.91 369.83L355.52 393.24" stroke="#132e65" stroke-width="1.5"></path>
        <path d="M534.56 553.61L534.56 553.61" stroke="#132e65" stroke-width="1.5"></path>
        <path d="M534.56 553.61L548.19 676.54" stroke="#132e65" stroke-width="1.5"></path>
        <path d="M534.56 553.61L676.15 502.16" stroke="#132e65" stroke-width="1.5"></path>
        <path d="M548.19 676.54L548.19 676.54" stroke="#132e65" stroke-width="1.5"></path>
        <path d="M548.19 676.54L655.27 707.47" stroke="#132e65" stroke-width="1.5"></path>
        <path d="M548.19 676.54L676.15 502.16" stroke="#132e65" stroke-width="1.5"></path>
        <path d="M548.19 676.54L381.82 498.19" stroke="#132e65" stroke-width="1.5"></path>
        <path d="M548.19 676.54L801.66 671.45" stroke="#132e65" stroke-width="1.5"></path>
        <path d="M677.11 237.4L677.11 237.4" stroke="#132e65" stroke-width="1.5"></path>
        <path d="M677.11 237.4L808.43 214.33" stroke="#132e65" stroke-width="1.5"></path>
        <path d="M677.11 237.4L650.07 404.35" stroke="#132e65" stroke-width="1.5"></path>
        <path d="M650.07 404.35L650.07 404.35" stroke="#132e65" stroke-width="1.5"></path>
        <path d="M650.07 404.35L676.15 502.16" stroke="#132e65" stroke-width="1.5"></path>
        <path d="M650.07 404.35L534.56 553.61" stroke="#132e65" stroke-width="1.5"></path>
        <path d="M650.07 404.35L840.76 381.1" stroke="#132e65" stroke-width="1.5"></path>
        <path d="M676.15 502.16L676.15 502.16" stroke="#132e65" stroke-width="1.5"></path>
        <path d="M676.15 502.16L789.37 561.77" stroke="#132e65" stroke-width="1.5"></path>
        <path d="M655.27 707.47L655.27 707.47" stroke="#132e65" stroke-width="1.5"></path>
        <path d="M808.43 214.33L808.43 214.33" stroke="#132e65" stroke-width="1.5"></path>
        <path d="M808.43 214.33L944.98 192.83" stroke="#132e65" stroke-width="1.5"></path>
        <path d="M808.43 214.33L840.76 381.1" stroke="#132e65" stroke-width="1.5"></path>
        <path d="M808.43 214.33L989.66 100.57" stroke="#132e65" stroke-width="1.5"></path>
        <path d="M808.43 214.33L984.39 343.1" stroke="#132e65" stroke-width="1.5"></path>
        <path d="M808.43 214.33L650.07 404.35" stroke="#132e65" stroke-width="1.5"></path>
        <path d="M840.76 381.1L840.76 381.1" stroke="#132e65" stroke-width="1.5"></path>
        <path d="M840.76 381.1L984.39 343.1" stroke="#132e65" stroke-width="1.5"></path>
        <path d="M840.76 381.1L789.37 561.77" stroke="#132e65" stroke-width="1.5"></path>
        <path d="M840.76 381.1L676.15 502.16" stroke="#132e65" stroke-width="1.5"></path>
        <path d="M789.37 561.77L789.37 561.77" stroke="#132e65" stroke-width="1.5"></path>
        <path d="M789.37 561.77L801.66 671.45" stroke="#132e65" stroke-width="1.5"></path>
        <path d="M789.37 561.77L655.27 707.47" stroke="#132e65" stroke-width="1.5"></path>
        <path d="M789.37 561.77L987.77 538.36" stroke="#132e65" stroke-width="1.5"></path>
        <path d="M789.37 561.77L650.07 404.35" stroke="#132e65" stroke-width="1.5"></path>
        <path d="M801.66 671.45L801.66 671.45" stroke="#132e65" stroke-width="1.5"></path>
        <path d="M801.66 671.45L655.27 707.47" stroke="#132e65" stroke-width="1.5"></path>
        <path d="M801.66 671.45L1007.72 702.47" stroke="#132e65" stroke-width="1.5"></path>
        <path d="M801.66 671.45L676.15 502.16" stroke="#132e65" stroke-width="1.5"></path>
        <path d="M801.66 671.45L987.77 538.36" stroke="#132e65" stroke-width="1.5"></path>
        <path d="M941.44 -89.84L941.44 -89.84" stroke="#132e65" stroke-width="1.5"></path>
        <path d="M941.44 -89.84L1113.32 -56.48" stroke="#132e65" stroke-width="1.5"></path>
        <path d="M941.44 -89.84L989.66 100.57" stroke="#132e65" stroke-width="1.5"></path>
        <path d="M941.44 -89.84L1100.85 88.44" stroke="#132e65" stroke-width="1.5"></path>
        <path d="M941.44 -89.84L944.98 192.83" stroke="#132e65" stroke-width="1.5"></path>
        <path d="M989.66 100.57L989.66 100.57" stroke="#132e65" stroke-width="1.5"></path>
        <path d="M989.66 100.57L944.98 192.83" stroke="#132e65" stroke-width="1.5"></path>
        <path d="M989.66 100.57L1100.85 88.44" stroke="#132e65" stroke-width="1.5"></path>
        <path d="M944.98 192.83L944.98 192.83" stroke="#132e65" stroke-width="1.5"></path>
        <path d="M944.98 192.83L984.39 343.1" stroke="#132e65" stroke-width="1.5"></path>
        <path d="M984.39 343.1L984.39 343.1" stroke="#132e65" stroke-width="1.5"></path>
        <path d="M984.39 343.1L1139.86 372.72" stroke="#132e65" stroke-width="1.5"></path>
        <path d="M984.39 343.1L987.77 538.36" stroke="#132e65" stroke-width="1.5"></path>
        <path d="M984.39 343.1L1124.5 189.59" stroke="#132e65" stroke-width="1.5"></path>
        <path d="M987.77 538.36L987.77 538.36" stroke="#132e65" stroke-width="1.5"></path>
        <path d="M987.77 538.36L1101.63 656.42" stroke="#132e65" stroke-width="1.5"></path>
        <path d="M987.77 538.36L1007.72 702.47" stroke="#132e65" stroke-width="1.5"></path>
        <path d="M1007.72 702.47L1007.72 702.47" stroke="#132e65" stroke-width="1.5"></path>
        <path d="M1007.72 702.47L1101.63 656.42" stroke="#132e65" stroke-width="1.5"></path>
        <path d="M1007.72 702.47L789.37 561.77" stroke="#132e65" stroke-width="1.5"></path>
        <path d="M1113.32 -56.48L1113.32 -56.48" stroke="#132e65" stroke-width="1.5"></path>
        <path d="M1113.32 -56.48L1100.85 88.44" stroke="#132e65" stroke-width="1.5"></path>
        <path d="M1113.32 -56.48L1302.94 -96.22" stroke="#132e65" stroke-width="1.5"></path>
        <path d="M1113.32 -56.48L989.66 100.57" stroke="#132e65" stroke-width="1.5"></path>
        <path d="M1113.32 -56.48L1124.5 189.59" stroke="#132e65" stroke-width="1.5"></path>
        <path d="M1100.85 88.44L1100.85 88.44" stroke="#132e65" stroke-width="1.5"></path>
        <path d="M1100.85 88.44L1124.5 189.59" stroke="#132e65" stroke-width="1.5"></path>
        <path d="M1100.85 88.44L944.98 192.83" stroke="#132e65" stroke-width="1.5"></path>
        <path d="M1100.85 88.44L1297.87 111.47" stroke="#132e65" stroke-width="1.5"></path>
        <path d="M1100.85 88.44L1268.51 228.87" stroke="#132e65" stroke-width="1.5"></path>
        <path d="M1124.5 189.59L1124.5 189.59" stroke="#132e65" stroke-width="1.5"></path>
        <path d="M1124.5 189.59L1268.51 228.87" stroke="#132e65" stroke-width="1.5"></path>
        <path d="M1124.5 189.59L989.66 100.57" stroke="#132e65" stroke-width="1.5"></path>
        <path d="M1124.5 189.59L944.98 192.83" stroke="#132e65" stroke-width="1.5"></path>
        <path d="M1124.5 189.59L1139.86 372.72" stroke="#132e65" stroke-width="1.5"></path>
        <path d="M1124.5 189.59L1297.87 111.47" stroke="#132e65" stroke-width="1.5"></path>
        <path d="M1139.86 372.72L1139.86 372.72" stroke="#132e65" stroke-width="1.5"></path>
        <path d="M1139.86 372.72L1266.64 354.96" stroke="#132e65" stroke-width="1.5"></path>
        <path d="M1139.86 372.72L1268.51 228.87" stroke="#132e65" stroke-width="1.5"></path>
        <path d="M1139.86 372.72L1242.29 543.33" stroke="#132e65" stroke-width="1.5"></path>
        <path d="M1101.63 656.42L1101.63 656.42" stroke="#132e65" stroke-width="1.5"></path>
        <path d="M1101.63 656.42L1242.29 543.33" stroke="#132e65" stroke-width="1.5"></path>
        <path d="M1101.63 656.42L1302.01 686.43" stroke="#132e65" stroke-width="1.5"></path>
        <path d="M1101.63 656.42L1139.86 372.72" stroke="#132e65" stroke-width="1.5"></path>
        <path d="M1101.63 656.42L801.66 671.45" stroke="#132e65" stroke-width="1.5"></path>
        <path d="M1302.94 -96.22L1302.94 -96.22" stroke="#132e65" stroke-width="1.5"></path>
        <path d="M1302.94 -96.22L1437.4 -68" stroke="#132e65" stroke-width="1.5"></path>
        <path d="M1302.94 -96.22L1421.53 54.91" stroke="#132e65" stroke-width="1.5"></path>
        <path d="M1297.87 111.47L1297.87 111.47" stroke="#132e65" stroke-width="1.5"></path>
        <path d="M1297.87 111.47L1268.51 228.87" stroke="#132e65" stroke-width="1.5"></path>
        <path d="M1268.51 228.87L1268.51 228.87" stroke="#132e65" stroke-width="1.5"></path>
        <path d="M1268.51 228.87L1266.64 354.96" stroke="#132e65" stroke-width="1.5"></path>
        <path d="M1268.51 228.87L1435.91 251.82" stroke="#132e65" stroke-width="1.5"></path>
        <path d="M1268.51 228.87L1395.82 353.28" stroke="#132e65" stroke-width="1.5"></path>
        <path d="M1266.64 354.96L1266.64 354.96" stroke="#132e65" stroke-width="1.5"></path>
        <path d="M1266.64 354.96L1395.82 353.28" stroke="#132e65" stroke-width="1.5"></path>
        <path d="M1242.29 543.33L1242.29 543.33" stroke="#132e65" stroke-width="1.5"></path>
        <path d="M1242.29 543.33L1389.65 544.51" stroke="#132e65" stroke-width="1.5"></path>
        <path d="M1242.29 543.33L1302.01 686.43" stroke="#132e65" stroke-width="1.5"></path>
        <path d="M1242.29 543.33L1266.64 354.96" stroke="#132e65" stroke-width="1.5"></path>
        <path d="M1242.29 543.33L1423.79 651.14" stroke="#132e65" stroke-width="1.5"></path>
        <path d="M1302.01 686.43L1302.01 686.43" stroke="#132e65" stroke-width="1.5"></path>
        <path d="M1302.01 686.43L1423.79 651.14" stroke="#132e65" stroke-width="1.5"></path>
        <path d="M1302.01 686.43L1389.65 544.51" stroke="#132e65" stroke-width="1.5"></path>
        <path d="M1437.4 -68L1437.4 -68" stroke="#132e65" stroke-width="1.5"></path>
        <path d="M1437.4 -68L1554.14 -59.18" stroke="#132e65" stroke-width="1.5"></path>
        <path d="M1437.4 -68L1421.53 54.91" stroke="#132e65" stroke-width="1.5"></path>
        <path d="M1437.4 -68L1588.46 90.92" stroke="#132e65" stroke-width="1.5"></path>
        <path d="M1421.53 54.91L1421.53 54.91" stroke="#132e65" stroke-width="1.5"></path>
        <path d="M1421.53 54.91L1297.87 111.47" stroke="#132e65" stroke-width="1.5"></path>
        <path d="M1421.53 54.91L1588.46 90.92" stroke="#132e65" stroke-width="1.5"></path>
        <path d="M1435.91 251.82L1435.91 251.82" stroke="#132e65" stroke-width="1.5"></path>
        <path d="M1435.91 251.82L1395.82 353.28" stroke="#132e65" stroke-width="1.5"></path>
        <path d="M1435.91 251.82L1586.48 223.35" stroke="#132e65" stroke-width="1.5"></path>
        <path d="M1435.91 251.82L1297.87 111.47" stroke="#132e65" stroke-width="1.5"></path>
        <path d="M1435.91 251.82L1421.53 54.91" stroke="#132e65" stroke-width="1.5"></path>
        <path d="M1395.82 353.28L1395.82 353.28" stroke="#132e65" stroke-width="1.5"></path>
        <path d="M1389.65 544.51L1389.65 544.51" stroke="#132e65" stroke-width="1.5"></path>
        <path d="M1389.65 544.51L1423.79 651.14" stroke="#132e65" stroke-width="1.5"></path>
        <path d="M1389.65 544.51L1395.82 353.28" stroke="#132e65" stroke-width="1.5"></path>
        <path d="M1389.65 544.51L1567.16 641.53" stroke="#132e65" stroke-width="1.5"></path>
        <path d="M1389.65 544.51L1266.64 354.96" stroke="#132e65" stroke-width="1.5"></path>
        <path d="M1423.79 651.14L1423.79 651.14" stroke="#132e65" stroke-width="1.5"></path>
        <path d="M1423.79 651.14L1567.16 641.53" stroke="#132e65" stroke-width="1.5"></path>
        <path d="M1554.14 -59.18L1554.14 -59.18" stroke="#132e65" stroke-width="1.5"></path>
        <path d="M1554.14 -59.18L1588.46 90.92" stroke="#132e65" stroke-width="1.5"></path>
        <path d="M1588.46 90.92L1588.46 90.92" stroke="#132e65" stroke-width="1.5"></path>
        <path d="M1588.46 90.92L1586.48 223.35" stroke="#132e65" stroke-width="1.5"></path>
        <path d="M1586.48 223.35L1586.48 223.35" stroke="#132e65" stroke-width="1.5"></path>
        <path d="M1586.48 223.35L1569.58 405.92" stroke="#132e65" stroke-width="1.5"></path>
        <path d="M1586.48 223.35L1395.82 353.28" stroke="#132e65" stroke-width="1.5"></path>
        <path d="M1569.58 405.92L1569.58 405.92" stroke="#132e65" stroke-width="1.5"></path>
        <path d="M1569.58 405.92L1395.82 353.28" stroke="#132e65" stroke-width="1.5"></path>
        <path d="M1569.58 405.92L1435.91 251.82" stroke="#132e65" stroke-width="1.5"></path>
        <path d="M1569.58 405.92L1389.65 544.51" stroke="#132e65" stroke-width="1.5"></path>
        <path d="M1567.16 641.53L1567.16 641.53" stroke="#132e65" stroke-width="1.5"></path>
        <path d="M1567.16 641.53L1569.58 405.92" stroke="#132e65" stroke-width="1.5"></path>
        <path d="M1567.16 641.53L1302.01 686.43" stroke="#132e65" stroke-width="1.5"></path>
        <circle r="5" cx="-110.69" cy="347.01" fill="#132e65"></circle>
        <circle r="5" cx="-78.75" cy="534.57" fill="#132e65"></circle>
        <circle r="5" cx="-46.65" cy="697.1" fill="#132e65"></circle>
        <circle r="5" cx="89.95" cy="387.84" fill="#132e65"></circle>
        <circle r="5" cx="102.78" cy="558.58" fill="#132e65"></circle>
        <circle r="5" cx="107.87" cy="665.1" fill="#132e65"></circle>
        <circle r="5" cx="227.38" cy="364.36" fill="#132e65"></circle>
        <circle r="5" cx="241.45" cy="509.86" fill="#132e65"></circle>
        <circle r="5" cx="200.34" cy="655.58" fill="#132e65"></circle>
        <circle r="5" cx="355.52" cy="393.24" fill="#132e65"></circle>
        <circle r="5" cx="381.82" cy="498.19" fill="#132e65"></circle>
        <circle r="5" cx="405.97" cy="657.1" fill="#132e65"></circle>
        <circle r="5" cx="554.91" cy="369.83" fill="#132e65"></circle>
        <circle r="5" cx="534.56" cy="553.61" fill="#132e65"></circle>
        <circle r="5" cx="548.19" cy="676.54" fill="#132e65"></circle>
        <circle r="5" cx="677.11" cy="237.4" fill="#132e65"></circle>
        <circle r="5" cx="650.07" cy="404.35" fill="#132e65"></circle>
        <circle r="5" cx="676.15" cy="502.16" fill="#132e65"></circle>
        <circle r="5" cx="655.27" cy="707.47" fill="#132e65"></circle>
        <circle r="5" cx="808.43" cy="214.33" fill="#132e65"></circle>
        <circle r="5" cx="840.76" cy="381.1" fill="#132e65"></circle>
        <circle r="5" cx="789.37" cy="561.77" fill="#132e65"></circle>
        <circle r="5" cx="801.66" cy="671.45" fill="#132e65"></circle>
        <circle r="5" cx="941.44" cy="-89.84" fill="#132e65"></circle>
        <circle r="5" cx="989.66" cy="100.57" fill="#132e65"></circle>
        <circle r="5" cx="944.98" cy="192.83" fill="#132e65"></circle>
        <circle r="5" cx="984.39" cy="343.1" fill="#132e65"></circle>
        <circle r="5" cx="987.77" cy="538.36" fill="#132e65"></circle>
        <circle r="5" cx="1007.72" cy="702.47" fill="#132e65"></circle>
        <circle r="5" cx="1113.32" cy="-56.48" fill="#132e65"></circle>
        <circle r="5" cx="1100.85" cy="88.44" fill="#132e65"></circle>
        <circle r="5" cx="1124.5" cy="189.59" fill="#132e65"></circle>
        <circle r="5" cx="1139.86" cy="372.72" fill="#132e65"></circle>
        <circle r="5" cx="1101.63" cy="656.42" fill="#132e65"></circle>
        <circle r="5" cx="1302.94" cy="-96.22" fill="#132e65"></circle>
        <circle r="5" cx="1297.87" cy="111.47" fill="#132e65"></circle>
        <circle r="5" cx="1268.51" cy="228.87" fill="#132e65"></circle>
        <circle r="5" cx="1266.64" cy="354.96" fill="#132e65"></circle>
        <circle r="5" cx="1242.29" cy="543.33" fill="#132e65"></circle>
        <circle r="5" cx="1302.01" cy="686.43" fill="#132e65"></circle>
        <circle r="5" cx="1437.4" cy="-68" fill="#132e65"></circle>
        <circle r="5" cx="1421.53" cy="54.91" fill="#132e65"></circle>
        <circle r="5" cx="1435.91" cy="251.82" fill="#132e65"></circle>
        <circle r="5" cx="1395.82" cy="353.28" fill="#132e65"></circle>
        <circle r="5" cx="1389.65" cy="544.51" fill="#132e65"></circle>
        <circle r="5" cx="1423.79" cy="651.14" fill="#132e65"></circle>
        <circle r="5" cx="1554.14" cy="-59.18" fill="#132e65"></circle>
        <circle r="5" cx="1588.46" cy="90.92" fill="#132e65"></circle>
        <circle r="5" cx="1586.48" cy="223.35" fill="#132e65"></circle>
        <circle r="5" cx="1569.58" cy="405.92" fill="#132e65"></circle>
        <circle r="5" cx="1567.16" cy="641.53" fill="#132e65"></circle>
        <path d="M-52.16 643.22L-52.16 643.22" stroke="hsl(228.5, 77.2%, 51.5%)" stroke-width="1.5"></path>
        <path d="M-52.16 643.22L47.38 647.99" stroke="hsl(228.5, 77.2%, 51.5%)" stroke-width="1.5"></path>
        <path d="M-52.16 643.22L-102.17 541.66" stroke="hsl(228.5, 77.2%, 51.5%)" stroke-width="1.5"></path>
        <path d="M-52.16 643.22L76.48 495.72" stroke="hsl(228.5, 77.2%, 51.5%)" stroke-width="1.5"></path>
        <path d="M-52.16 643.22L360.3 514.34" stroke="hsl(228.5, 77.2%, 51.5%)" stroke-width="1.5"></path>
        <path d="M-52.16 643.22L517.58 562.38" stroke="hsl(228.5, 77.2%, 51.5%)" stroke-width="1.5"></path>
        <path d="M76.48 495.72L76.48 495.72" stroke="hsl(228.5, 77.2%, 51.5%)" stroke-width="1.5"></path>
        <path d="M76.48 495.72L47.38 647.99" stroke="hsl(228.5, 77.2%, 51.5%)" stroke-width="1.5"></path>
        <path d="M76.48 495.72L-102.17 541.66" stroke="hsl(228.5, 77.2%, 51.5%)" stroke-width="1.5"></path>
        <path d="M47.38 647.99L47.38 647.99" stroke="hsl(228.5, 77.2%, 51.5%)" stroke-width="1.5"></path>
        <path d="M47.38 647.99L-102.17 541.66" stroke="hsl(228.5, 77.2%, 51.5%)" stroke-width="1.5"></path>
        <path d="M47.38 647.99L360.3 514.34" stroke="hsl(228.5, 77.2%, 51.5%)" stroke-width="1.5"></path>
        <path d="M553.54 672.73L553.54 672.73" stroke="hsl(228.5, 77.2%, 51.5%)" stroke-width="1.5"></path>
        <path d="M553.54 672.73L517.58 562.38" stroke="hsl(228.5, 77.2%, 51.5%)" stroke-width="1.5"></path>
        <path d="M553.54 672.73L691.03 698.53" stroke="hsl(228.5, 77.2%, 51.5%)" stroke-width="1.5"></path>
        <path d="M797.16 398.78L797.16 398.78" stroke="hsl(228.5, 77.2%, 51.5%)" stroke-width="1.5"></path>
        <path d="M797.16 398.78L693.93 371.84" stroke="hsl(228.5, 77.2%, 51.5%)" stroke-width="1.5"></path>
        <path d="M797.16 398.78L828.86 522.95" stroke="hsl(228.5, 77.2%, 51.5%)" stroke-width="1.5"></path>
        <path d="M797.16 398.78L984.54 345.4" stroke="hsl(228.5, 77.2%, 51.5%)" stroke-width="1.5"></path>
        <path d="M797.16 398.78L965.03 562.02" stroke="hsl(228.5, 77.2%, 51.5%)" stroke-width="1.5"></path>
        <path d="M797.16 398.78L1010.99 241.81" stroke="hsl(228.5, 77.2%, 51.5%)" stroke-width="1.5"></path>
        <path d="M797.16 398.78L848.11 677.19" stroke="hsl(228.5, 77.2%, 51.5%)" stroke-width="1.5"></path>
        <path d="M1405.46 537.53L1405.46 537.53" stroke="hsl(228.5, 77.2%, 51.5%)" stroke-width="1.5"></path>
        <path d="M1405.46 537.53L1459.89 640.39" stroke="hsl(228.5, 77.2%, 51.5%)" stroke-width="1.5"></path>
        <path d="M1405.46 537.53L1256.91 529.26" stroke="hsl(228.5, 77.2%, 51.5%)" stroke-width="1.5"></path>
        <path d="M1459.89 640.39L1459.89 640.39" stroke="hsl(228.5, 77.2%, 51.5%)" stroke-width="1.5"></path>
        <path d="M1555.98 -60.24L1555.98 -60.24" stroke="hsl(228.5, 77.2%, 51.5%)" stroke-width="1.5"></path>
        <path d="M1555.98 -60.24L1411.01 -100.13" stroke="hsl(228.5, 77.2%, 51.5%)" stroke-width="1.5"></path>
        <path d="M1555.98 -60.24L1411.12 62.38" stroke="hsl(228.5, 77.2%, 51.5%)" stroke-width="1.5"></path>
        <path d="M1555.98 -60.24L1581.76 194.97" stroke="hsl(228.5, 77.2%, 51.5%)" stroke-width="1.5"></path>
        <path d="M-102.17 541.66L-102.17 541.66" stroke="hsl(228.5, 77.2%, 51.5%)" stroke-width="1.5"></path>
        <path d="M360.3 514.34L360.3 514.34" stroke="hsl(228.5, 77.2%, 51.5%)" stroke-width="1.5"></path>
        <path d="M360.3 514.34L517.58 562.38" stroke="hsl(228.5, 77.2%, 51.5%)" stroke-width="1.5"></path>
        <path d="M360.3 514.34L553.54 672.73" stroke="hsl(228.5, 77.2%, 51.5%)" stroke-width="1.5"></path>
        <path d="M360.3 514.34L76.48 495.72" stroke="hsl(228.5, 77.2%, 51.5%)" stroke-width="1.5"></path>
        <path d="M360.3 514.34L693.93 371.84" stroke="hsl(228.5, 77.2%, 51.5%)" stroke-width="1.5"></path>
        <path d="M517.58 562.38L517.58 562.38" stroke="hsl(228.5, 77.2%, 51.5%)" stroke-width="1.5"></path>
        <path d="M517.58 562.38L691.03 698.53" stroke="hsl(228.5, 77.2%, 51.5%)" stroke-width="1.5"></path>
        <path d="M693.93 371.84L693.93 371.84" stroke="hsl(228.5, 77.2%, 51.5%)" stroke-width="1.5"></path>
        <path d="M693.93 371.84L828.86 522.95" stroke="hsl(228.5, 77.2%, 51.5%)" stroke-width="1.5"></path>
        <path d="M693.93 371.84L517.58 562.38" stroke="hsl(228.5, 77.2%, 51.5%)" stroke-width="1.5"></path>
        <path d="M693.93 371.84L984.54 345.4" stroke="hsl(228.5, 77.2%, 51.5%)" stroke-width="1.5"></path>
        <path d="M693.93 371.84L691.03 698.53" stroke="hsl(228.5, 77.2%, 51.5%)" stroke-width="1.5"></path>
        <path d="M693.93 371.84L965.03 562.02" stroke="hsl(228.5, 77.2%, 51.5%)" stroke-width="1.5"></path>
        <path d="M691.03 698.53L691.03 698.53" stroke="hsl(228.5, 77.2%, 51.5%)" stroke-width="1.5"></path>
        <path d="M691.03 698.53L848.11 677.19" stroke="hsl(228.5, 77.2%, 51.5%)" stroke-width="1.5"></path>
        <path d="M691.03 698.53L828.86 522.95" stroke="hsl(228.5, 77.2%, 51.5%)" stroke-width="1.5"></path>
        <path d="M828.86 522.95L828.86 522.95" stroke="hsl(228.5, 77.2%, 51.5%)" stroke-width="1.5"></path>
        <path d="M828.86 522.95L965.03 562.02" stroke="hsl(228.5, 77.2%, 51.5%)" stroke-width="1.5"></path>
        <path d="M828.86 522.95L848.11 677.19" stroke="hsl(228.5, 77.2%, 51.5%)" stroke-width="1.5"></path>
        <path d="M828.86 522.95L992.71 684.96" stroke="hsl(228.5, 77.2%, 51.5%)" stroke-width="1.5"></path>
        <path d="M848.11 677.19L848.11 677.19" stroke="hsl(228.5, 77.2%, 51.5%)" stroke-width="1.5"></path>
        <path d="M848.11 677.19L992.71 684.96" stroke="hsl(228.5, 77.2%, 51.5%)" stroke-width="1.5"></path>
        <path d="M848.11 677.19L965.03 562.02" stroke="hsl(228.5, 77.2%, 51.5%)" stroke-width="1.5"></path>
        <path d="M1010.99 241.81L1010.99 241.81" stroke="hsl(228.5, 77.2%, 51.5%)" stroke-width="1.5"></path>
        <path d="M1010.99 241.81L1098.85 200.79" stroke="hsl(228.5, 77.2%, 51.5%)" stroke-width="1.5"></path>
        <path d="M1010.99 241.81L984.54 345.4" stroke="hsl(228.5, 77.2%, 51.5%)" stroke-width="1.5"></path>
        <path d="M1010.99 241.81L1120.59 111.19" stroke="hsl(228.5, 77.2%, 51.5%)" stroke-width="1.5"></path>
        <path d="M984.54 345.4L984.54 345.4" stroke="hsl(228.5, 77.2%, 51.5%)" stroke-width="1.5"></path>
        <path d="M984.54 345.4L1127.74 384.25" stroke="hsl(228.5, 77.2%, 51.5%)" stroke-width="1.5"></path>
        <path d="M984.54 345.4L1098.85 200.79" stroke="hsl(228.5, 77.2%, 51.5%)" stroke-width="1.5"></path>
        <path d="M984.54 345.4L965.03 562.02" stroke="hsl(228.5, 77.2%, 51.5%)" stroke-width="1.5"></path>
        <path d="M984.54 345.4L828.86 522.95" stroke="hsl(228.5, 77.2%, 51.5%)" stroke-width="1.5"></path>
        <path d="M965.03 562.02L965.03 562.02" stroke="hsl(228.5, 77.2%, 51.5%)" stroke-width="1.5"></path>
        <path d="M965.03 562.02L992.71 684.96" stroke="hsl(228.5, 77.2%, 51.5%)" stroke-width="1.5"></path>
        <path d="M992.71 684.96L992.71 684.96" stroke="hsl(228.5, 77.2%, 51.5%)" stroke-width="1.5"></path>
        <path d="M992.71 684.96L1135.85 666.88" stroke="hsl(228.5, 77.2%, 51.5%)" stroke-width="1.5"></path>
        <path d="M1120.59 111.19L1120.59 111.19" stroke="hsl(228.5, 77.2%, 51.5%)" stroke-width="1.5"></path>
        <path d="M1120.59 111.19L1098.85 200.79" stroke="hsl(228.5, 77.2%, 51.5%)" stroke-width="1.5"></path>
        <path d="M1120.59 111.19L1295.85 109.97" stroke="hsl(228.5, 77.2%, 51.5%)" stroke-width="1.5"></path>
        <path d="M1120.59 111.19L1288.66 206.6" stroke="hsl(228.5, 77.2%, 51.5%)" stroke-width="1.5"></path>
        <path d="M1120.59 111.19L1243.76 -72.1" stroke="hsl(228.5, 77.2%, 51.5%)" stroke-width="1.5"></path>
        <path d="M1098.85 200.79L1098.85 200.79" stroke="hsl(228.5, 77.2%, 51.5%)" stroke-width="1.5"></path>
        <path d="M1127.74 384.25L1127.74 384.25" stroke="hsl(228.5, 77.2%, 51.5%)" stroke-width="1.5"></path>
        <path d="M1127.74 384.25L1253.22 350.81" stroke="hsl(228.5, 77.2%, 51.5%)" stroke-width="1.5"></path>
        <path d="M1127.74 384.25L1010.99 241.81" stroke="hsl(228.5, 77.2%, 51.5%)" stroke-width="1.5"></path>
        <path d="M1127.74 384.25L1098.85 200.79" stroke="hsl(228.5, 77.2%, 51.5%)" stroke-width="1.5"></path>
        <path d="M1135.85 666.88L1135.85 666.88" stroke="hsl(228.5, 77.2%, 51.5%)" stroke-width="1.5"></path>
        <path d="M1135.85 666.88L1239.74 642.41" stroke="hsl(228.5, 77.2%, 51.5%)" stroke-width="1.5"></path>
        <path d="M1135.85 666.88L1256.91 529.26" stroke="hsl(228.5, 77.2%, 51.5%)" stroke-width="1.5"></path>
        <path d="M1135.85 666.88L965.03 562.02" stroke="hsl(228.5, 77.2%, 51.5%)" stroke-width="1.5"></path>
        <path d="M1243.76 -72.1L1243.76 -72.1" stroke="hsl(228.5, 77.2%, 51.5%)" stroke-width="1.5"></path>
        <path d="M1243.76 -72.1L1411.01 -100.13" stroke="hsl(228.5, 77.2%, 51.5%)" stroke-width="1.5"></path>
        <path d="M1243.76 -72.1L1295.85 109.97" stroke="hsl(228.5, 77.2%, 51.5%)" stroke-width="1.5"></path>
        <path d="M1295.85 109.97L1295.85 109.97" stroke="hsl(228.5, 77.2%, 51.5%)" stroke-width="1.5"></path>
        <path d="M1295.85 109.97L1288.66 206.6" stroke="hsl(228.5, 77.2%, 51.5%)" stroke-width="1.5"></path>
        <path d="M1295.85 109.97L1411.12 62.38" stroke="hsl(228.5, 77.2%, 51.5%)" stroke-width="1.5"></path>
        <path d="M1295.85 109.97L1403.15 218.99" stroke="hsl(228.5, 77.2%, 51.5%)" stroke-width="1.5"></path>
        <path d="M1288.66 206.6L1288.66 206.6" stroke="hsl(228.5, 77.2%, 51.5%)" stroke-width="1.5"></path>
        <path d="M1288.66 206.6L1403.15 218.99" stroke="hsl(228.5, 77.2%, 51.5%)" stroke-width="1.5"></path>
        <path d="M1253.22 350.81L1253.22 350.81" stroke="hsl(228.5, 77.2%, 51.5%)" stroke-width="1.5"></path>
        <path d="M1253.22 350.81L1288.66 206.6" stroke="hsl(228.5, 77.2%, 51.5%)" stroke-width="1.5"></path>
        <path d="M1253.22 350.81L1256.91 529.26" stroke="hsl(228.5, 77.2%, 51.5%)" stroke-width="1.5"></path>
        <path d="M1253.22 350.81L1436.68 383.26" stroke="hsl(228.5, 77.2%, 51.5%)" stroke-width="1.5"></path>
        <path d="M1256.91 529.26L1256.91 529.26" stroke="hsl(228.5, 77.2%, 51.5%)" stroke-width="1.5"></path>
        <path d="M1256.91 529.26L1239.74 642.41" stroke="hsl(228.5, 77.2%, 51.5%)" stroke-width="1.5"></path>
        <path d="M1256.91 529.26L1127.74 384.25" stroke="hsl(228.5, 77.2%, 51.5%)" stroke-width="1.5"></path>
        <path d="M1256.91 529.26L1459.89 640.39" stroke="hsl(228.5, 77.2%, 51.5%)" stroke-width="1.5"></path>
        <path d="M1239.74 642.41L1239.74 642.41" stroke="hsl(228.5, 77.2%, 51.5%)" stroke-width="1.5"></path>
        <path d="M1239.74 642.41L1405.46 537.53" stroke="hsl(228.5, 77.2%, 51.5%)" stroke-width="1.5"></path>
        <path d="M1239.74 642.41L1459.89 640.39" stroke="hsl(228.5, 77.2%, 51.5%)" stroke-width="1.5"></path>
        <path d="M1411.01 -100.13L1411.01 -100.13" stroke="hsl(228.5, 77.2%, 51.5%)" stroke-width="1.5"></path>
        <path d="M1411.01 -100.13L1411.12 62.38" stroke="hsl(228.5, 77.2%, 51.5%)" stroke-width="1.5"></path>
        <path d="M1411.12 62.38L1411.12 62.38" stroke="hsl(228.5, 77.2%, 51.5%)" stroke-width="1.5"></path>
        <path d="M1411.12 62.38L1403.15 218.99" stroke="hsl(228.5, 77.2%, 51.5%)" stroke-width="1.5"></path>
        <path d="M1403.15 218.99L1403.15 218.99" stroke="hsl(228.5, 77.2%, 51.5%)" stroke-width="1.5"></path>
        <path d="M1436.68 383.26L1436.68 383.26" stroke="hsl(228.5, 77.2%, 51.5%)" stroke-width="1.5"></path>
        <path d="M1436.68 383.26L1583.16 358.9" stroke="hsl(228.5, 77.2%, 51.5%)" stroke-width="1.5"></path>
        <path d="M1436.68 383.26L1405.46 537.53" stroke="hsl(228.5, 77.2%, 51.5%)" stroke-width="1.5"></path>
        <path d="M1436.68 383.26L1403.15 218.99" stroke="hsl(228.5, 77.2%, 51.5%)" stroke-width="1.5"></path>
        <path d="M1436.68 383.26L1573.97 511.74" stroke="hsl(228.5, 77.2%, 51.5%)" stroke-width="1.5"></path>
        <path d="M1581.76 194.97L1581.76 194.97" stroke="hsl(228.5, 77.2%, 51.5%)" stroke-width="1.5"></path>
        <path d="M1581.76 194.97L1583.16 358.9" stroke="hsl(228.5, 77.2%, 51.5%)" stroke-width="1.5"></path>
        <path d="M1581.76 194.97L1403.15 218.99" stroke="hsl(228.5, 77.2%, 51.5%)" stroke-width="1.5"></path>
        <path d="M1581.76 194.97L1411.12 62.38" stroke="hsl(228.5, 77.2%, 51.5%)" stroke-width="1.5"></path>
        <path d="M1581.76 194.97L1436.68 383.26" stroke="hsl(228.5, 77.2%, 51.5%)" stroke-width="1.5"></path>
        <path d="M1581.76 194.97L1288.66 206.6" stroke="hsl(228.5, 77.2%, 51.5%)" stroke-width="1.5"></path>
        <path d="M1583.16 358.9L1583.16 358.9" stroke="hsl(228.5, 77.2%, 51.5%)" stroke-width="1.5"></path>
        <path d="M1583.16 358.9L1573.97 511.74" stroke="hsl(228.5, 77.2%, 51.5%)" stroke-width="1.5"></path>
        <path d="M1583.16 358.9L1403.15 218.99" stroke="hsl(228.5, 77.2%, 51.5%)" stroke-width="1.5"></path>
        <path d="M1583.16 358.9L1405.46 537.53" stroke="hsl(228.5, 77.2%, 51.5%)" stroke-width="1.5"></path>
        <path d="M1583.16 358.9L1589.8 655.9" stroke="hsl(228.5, 77.2%, 51.5%)" stroke-width="1.5"></path>
        <path d="M1573.97 511.74L1573.97 511.74" stroke="hsl(228.5, 77.2%, 51.5%)" stroke-width="1.5"></path>
        <path d="M1573.97 511.74L1589.8 655.9" stroke="hsl(228.5, 77.2%, 51.5%)" stroke-width="1.5"></path>
        <path d="M1573.97 511.74L1405.46 537.53" stroke="hsl(228.5, 77.2%, 51.5%)" stroke-width="1.5"></path>
        <path d="M1573.97 511.74L1459.89 640.39" stroke="hsl(228.5, 77.2%, 51.5%)" stroke-width="1.5"></path>
        <path d="M1589.8 655.9L1589.8 655.9" stroke="hsl(228.5, 77.2%, 51.5%)" stroke-width="1.5"></path>
        <path d="M1589.8 655.9L1459.89 640.39" stroke="hsl(228.5, 77.2%, 51.5%)" stroke-width="1.5"></path>
        <circle r="25" cx="-52.16" cy="643.22" fill="url(#SvgjsRadialGradient1274)"></circle>
        <circle r="25" cx="76.48" cy="495.72" fill="url(#SvgjsRadialGradient1274)"></circle>
        <circle r="25" cx="47.38" cy="647.99" fill="url(#SvgjsRadialGradient1274)"></circle>
        <circle r="25" cx="553.54" cy="672.73" fill="url(#SvgjsRadialGradient1274)"></circle>
        <circle r="25" cx="797.16" cy="398.78" fill="url(#SvgjsRadialGradient1274)"></circle>
        <circle r="25" cx="1405.46" cy="537.53" fill="url(#SvgjsRadialGradient1274)"></circle>
        <circle r="25" cx="1459.89" cy="640.39" fill="url(#SvgjsRadialGradient1274)"></circle>
        <circle r="25" cx="1555.98" cy="-60.24" fill="url(#SvgjsRadialGradient1274)"></circle>
        <circle r="5" cx="-102.17" cy="541.66" fill="#8b9ad9"></circle>
        <circle r="5" cx="360.3" cy="514.34" fill="#8b9ad9"></circle>
        <circle r="5" cx="517.58" cy="562.38" fill="#8b9ad9"></circle>
        <circle r="5" cx="693.93" cy="371.84" fill="#8b9ad9"></circle>
        <circle r="5" cx="691.03" cy="698.53" fill="#8b9ad9"></circle>
        <circle r="5" cx="828.86" cy="522.95" fill="#8b9ad9"></circle>
        <circle r="5" cx="848.11" cy="677.19" fill="#8b9ad9"></circle>
        <circle r="5" cx="1010.99" cy="241.81" fill="#8b9ad9"></circle>
        <circle r="5" cx="984.54" cy="345.4" fill="#8b9ad9"></circle>
        <circle r="5" cx="965.03" cy="562.02" fill="#8b9ad9"></circle>
        <circle r="5" cx="992.71" cy="684.96" fill="#8b9ad9"></circle>
        <circle r="5" cx="1120.59" cy="111.19" fill="#8b9ad9"></circle>
        <circle r="5" cx="1098.85" cy="200.79" fill="#8b9ad9"></circle>
        <circle r="5" cx="1127.74" cy="384.25" fill="#8b9ad9"></circle>
        <circle r="5" cx="1135.85" cy="666.88" fill="#8b9ad9"></circle>
        <circle r="5" cx="1243.76" cy="-72.1" fill="#8b9ad9"></circle>
        <circle r="5" cx="1295.85" cy="109.97" fill="#8b9ad9"></circle>
        <circle r="5" cx="1288.66" cy="206.6" fill="#8b9ad9"></circle>
        <circle r="5" cx="1253.22" cy="350.81" fill="#8b9ad9"></circle>
        <circle r="5" cx="1256.91" cy="529.26" fill="#8b9ad9"></circle>
        <circle r="5" cx="1239.74" cy="642.41" fill="#8b9ad9"></circle>
        <circle r="5" cx="1411.01" cy="-100.13" fill="#8b9ad9"></circle>
        <circle r="5" cx="1411.12" cy="62.38" fill="#8b9ad9"></circle>
        <circle r="5" cx="1403.15" cy="218.99" fill="#8b9ad9"></circle>
        <circle r="5" cx="1436.68" cy="383.26" fill="#8b9ad9"></circle>
        <circle r="5" cx="1581.76" cy="194.97" fill="#8b9ad9"></circle>
        <circle r="5" cx="1583.16" cy="358.9" fill="#8b9ad9"></circle>
        <circle r="5" cx="1573.97" cy="511.74" fill="#8b9ad9"></circle>
        <circle r="5" cx="1589.8" cy="655.9" fill="#8b9ad9"></circle>
    </g>
    <defs>
        <mask id="SvgjsMask1272">
            <rect width="1440" height="560" fill="#ffffff"></rect>
        </mask>
        <linearGradient x1="15.28%" y1="-39.29%" x2="84.72%" y2="139.29%" gradientUnits="userSpaceOnUse" id="SvgjsLinearGradient1273">
            <stop stop-color="#0e2a47" offset="0"></stop>
            <stop stop-color="rgba(4, 71, 157, 1)" offset="1"></stop>
        </linearGradient>
        <radialGradient id="SvgjsRadialGradient1274">
            <stop stop-color="#ffffff" offset="0.1"></stop>
            <stop stop-color="#1735b3" offset="0.2"></stop>
            <stop stop-color="rgba(23, 53, 179, 0)" offset="1"></stop>
        </radialGradient>
    </defs>
</svg>